<svg xmlns="http://www.w3.org/2000/svg" viewBox="0 0 474.02 495.5"><defs><style>.cls-1{fill:#16a34a;}</style></defs><title>Asset 1</title><g id="Layer_2" data-name="Layer 2"><g id="Layer_1-2" data-name="Layer 1"><path class="cls-1" d="M162.23,292.87c2.21,10.27,4.58,20.51,6.54,30.83.7,3.68,2.1,4.82,5.91,4.82q119.73-.19,239.46-.13c8.6,0,15.48,3.11,19.55,10.88,3.54,6.75,3.33,13.67-.85,20.13s-10.53,9.54-18.34,9.29c-1.8-.06-3.6-.21-5.39-.21l-254,.06c-11.41,0-19-6.29-21.39-17.45q-15-69.53-30.12-139Q87.14,136.27,70.76,60.46c-.53-2.49-1.44-3.86-3.9-4.61C49.65,50.62,32.52,45.16,15.28,40,7.36,37.68,2.94,32.15,0,24.95V15Q2.12,2.12,15,0h10c12,5.33,24.86,8.28,37.3,12.39,9.84,3.26,19.84,6.05,29.71,9.23,8.55,2.76,13.44,8.91,15.32,17.55,6.88,31.74,13.8,63.47,20.51,95.24.76,3.59,2.11,4.61,5.71,4.6q162.49-.15,325-.08c4,0,8,.15,12-.06,3.17-.17,3.86,1.22,3.34,4q-4.75,25.46-9.42,50.94c-5.18,28.41-10.37,56.81-15.4,85.24-1.58,8.95-8.14,14-18.35,13.47a14.87,14.87,0,0,0-4.54-.24q-129.56,0-259.13,0C165.43,292.3,163.7,291.7,162.23,292.87Z"/><path class="cls-1" d="M376.42,393.07a51.22,51.22,0,1,1-51.32,51A50.8,50.8,0,0,1,376.42,393.07Z"/><path class="cls-1" d="M140.35,444.38A51.21,51.21,0,0,1,242.77,444a51.21,51.21,0,1,1-102.42.36Z"/><path class="cls-1" d="M162.23,292.87c1.14-1.53,2.79-.94,4.23-.94q130.1,0,260.21,0c1.36,0,2.79-.32,4,.61-2.08,0-4.15.09-6.23.09H168C166.09,292.63,164.16,292.79,162.23,292.87Z"/></g></g></svg>